<svg xmlns="http://www.w3.org/2000/svg" viewBox="0 0 128 128">
  <defs>
    <linearGradient id="bubbleStroke" x1="24" y1="88" x2="94" y2="30" gradientUnits="userSpaceOnUse">
      <stop offset="0" stop-color="#7C3AED"/>
      <stop offset="0.36" stop-color="#5B53F7"/>
      <stop offset="1" stop-color="#1E8BFF"/>
    </linearGradient>
    <linearGradient id="cursorFill" x1="64" y1="46" x2="104" y2="100" gradientUnits="userSpaceOnUse">
      <stop offset="0" stop-color="#7FD3FF"/>
      <stop offset="0.44" stop-color="#45B7FF"/>
      <stop offset="1" stop-color="#1E7CFF"/>
    </linearGradient>
    <linearGradient id="sparkleFill" x1="85" y1="24" x2="106" y2="45" gradientUnits="userSpaceOnUse">
      <stop offset="0" stop-color="#7FD3FF"/>
      <stop offset="1" stop-color="#2E89FF"/>
    </linearGradient>
    <filter id="tileShadow" x="-16%" y="-16%" width="132%" height="132%">
      <feDropShadow dx="0" dy="6" stdDeviation="6" flood-color="#000000" flood-opacity="0.14"/>
    </filter>
    <filter id="iconGlow" x="-18%" y="-18%" width="136%" height="136%">
      <feDropShadow dx="0" dy="0" stdDeviation="1.8" flood-color="#49B8FF" flood-opacity="0.26"/>
    </filter>
  </defs>

  <g filter="url(#tileShadow)">
    <rect x="7" y="7" width="114" height="114" rx="24" fill="#FFFFFF"/>
  </g>

  <g filter="url(#iconGlow)" transform="translate(-6.4 -6.4) scale(1.1)">
    <path
      d="M42 32h23c18 0 28 9 28 26v2c0 17-10 26-28 26H48L30 100l4-15c-8-4-13-12-13-24v-3c0-17 10-26 21-26z"
      fill="none"
      stroke="url(#bubbleStroke)"
      stroke-width="8"
      stroke-linecap="round"
      stroke-linejoin="round"
    />

    <circle cx="44" cy="60" r="4.4" fill="#2D77FF"/>
    <circle cx="57" cy="60" r="4.4" fill="#2D77FF"/>
    <circle cx="70" cy="60" r="4.4" fill="#2D77FF"/>

    <path
      d="M63 46l38 22-20 5 13 18c1.3 1.8 1.1 4.2-.5 5.7l-2.1 2c-1.6 1.5-4 1.4-5.5-.2L73 82l-7 17c-.8 1.9-3.4 1.8-4-.1l-6.7-49.2c-.3-2.1 1.8-3.7 3.7-3.1z"
      fill="url(#cursorFill)"
    />

    <g stroke="#FFFFFF" stroke-opacity="0.88" stroke-linecap="round">
      <path d="M66 50l6 2" stroke-width="1.5"/>
      <path d="M65 54l8 2" stroke-width="1.5"/>
      <path d="M64 58l9 2" stroke-width="1.4"/>
      <path d="M64 62l9 3" stroke-width="1.3"/>
      <path d="M65 66l8 3" stroke-width="1.2"/>
      <path d="M66 70l6 3" stroke-width="1.1"/>
    </g>

    <path
      d="M91 24l2.8 8.2L102 35l-8.2 2.8L91 46l-2.8-8.2L80 35l8.2-2.8z"
      fill="url(#sparkleFill)"
    />
  </g>
</svg>
